<?xml version="1.0" standalone="no"?>
<!DOCTYPE svg PUBLIC "-//W3C//DTD SVG 20010904//EN"
 "http://www.w3.org/TR/2001/REC-SVG-20010904/DTD/svg10.dtd">
<svg version="1.0" xmlns="http://www.w3.org/2000/svg"
 width="1024.000000pt" height="1024.000000pt" viewBox="0 0 1024.000000 1024.000000"
 preserveAspectRatio="xMidYMid meet">

<g transform="translate(0.000000,1024.000000) scale(0.100000,-0.100000)"
fill="#000000" stroke="none">
<path d="M4852 9310 c-316 -40 -633 -220 -817 -466 -105 -139 -185 -323 -201
-460 l-7 -55 -126 -83 c-428 -284 -737 -721 -862 -1220 -11 -44 -22 -87 -24
-95 -4 -9 -17 -3 -45 23 -22 19 -71 51 -110 71 l-70 35 0 61 c0 127 -50 204
-173 264 -160 78 -373 111 -647 102 -351 -13 -615 -101 -682 -229 -28 -55 -35
-199 -19 -406 17 -207 38 -331 77 -452 42 -131 91 -217 171 -298 104 -106 277
-172 449 -172 l64 0 29 -65 c87 -190 250 -362 469 -492 l33 -19 -80 -53 c-101
-66 -180 -151 -223 -238 l-33 -68 0 -220 c1 -727 189 -1497 490 -2012 134
-228 249 -379 423 -558 173 -177 387 -340 599 -455 56 -31 63 -38 73 -79 48
-195 214 -353 485 -462 524 -211 1444 -224 2012 -28 129 45 212 84 293 139
142 97 209 183 256 329 l32 96 58 33 c235 134 524 391 677 605 l42 57 60 -7
c33 -5 134 -8 225 -7 137 1 186 5 291 27 279 59 522 164 724 315 377 281 609
687 645 1128 34 425 -96 727 -393 912 -145 91 -295 131 -488 132 -110 0 -257
-20 -313 -44 l-33 -14 -10 77 c-15 111 -59 198 -144 282 -37 37 -82 73 -98 80
-17 8 -29 19 -27 26 16 42 27 147 21 208 -18 186 -117 343 -295 464 -76 52
-89 66 -85 84 14 63 25 207 25 328 0 845 -435 1579 -1136 1916 -64 31 -148 66
-188 78 -59 19 -72 27 -74 46 -12 95 -98 275 -183 386 -162 209 -441 377 -730
438 -90 19 -308 27 -407 15z m359 -200 c422 -86 737 -377 784 -724 8 -61 44
-100 106 -116 330 -86 654 -311 890 -620 191 -249 295 -494 361 -845 22 -121
25 -246 15 -717 -2 -95 -1 -97 28 -128 17 -17 54 -45 84 -62 91 -52 176 -141
219 -226 35 -72 37 -81 37 -171 -1 -76 -6 -108 -23 -153 -66 -165 -256 -261
-467 -236 -33 4 -102 21 -153 38 -162 53 -276 39 -372 -47 -63 -57 -113 -158
-130 -263 -6 -41 -18 -111 -27 -155 -23 -127 -84 -197 -181 -209 -56 -8 -102
4 -152 39 -47 32 -73 80 -99 178 -56 213 -150 312 -320 335 -127 18 -217 -10
-377 -115 -50 -33 -112 -65 -137 -72 -75 -21 -160 -10 -247 32 -93 44 -188 61
-268 48 -82 -14 -134 -34 -245 -97 -193 -111 -305 -127 -434 -64 -68 34 -115
76 -217 193 -75 88 -142 132 -231 153 -90 21 -155 15 -280 -26 -128 -42 -270
-52 -361 -25 -168 48 -249 127 -300 291 -12 42 -28 82 -35 90 -6 8 -43 23 -83
35 -155 45 -310 141 -417 257 -57 61 -142 187 -141 209 1 4 21 13 46 19 129
33 255 124 319 231 17 29 34 53 37 53 3 0 37 -31 76 -69 76 -74 192 -154 257
-177 56 -20 110 -18 139 6 48 37 52 63 38 268 -16 257 -2 413 61 663 132 530
454 976 867 1200 125 68 121 62 152 252 6 38 23 99 37 135 170 427 673 688
1144 592z m-3181 -1820 c47 -6 119 -20 161 -31 85 -23 194 -79 194 -100 0 -20
-104 -70 -135 -65 -14 3 -50 12 -80 21 -89 25 -244 38 -390 32 -135 -6 -272
-26 -309 -46 -11 -6 -32 -11 -48 -11 -47 1 -153 56 -153 80 0 24 230 100 359
119 82 12 304 13 401 1z m-722 -344 c202 -100 831 -98 1032 4 21 11 42 20 45
20 6 0 2 -68 -16 -250 -28 -276 -89 -435 -197 -513 -96 -69 -201 -97 -362 -97
-272 0 -415 111 -495 384 -32 113 -79 476 -60 476 3 0 27 -11 53 -24z m1356
-160 c28 -38 46 -88 46 -131 0 -52 -56 -151 -103 -184 -42 -28 -87 -47 -87
-37 0 4 6 48 14 99 8 50 20 144 26 209 l12 116 35 -20 c18 -11 44 -35 57 -52z
m99 -539 l6 -37 -30 17 c-17 10 -40 28 -52 41 -19 21 -20 25 -6 32 9 5 27 18
40 29 l24 19 6 -31 c4 -18 9 -49 12 -70z m-179 -1085 c19 -38 59 -94 88 -124
l53 -56 -75 -33 c-107 -48 -207 -118 -283 -199 l-66 -70 -25 33 c-40 52 -56
101 -56 169 0 112 60 198 193 283 56 35 113 64 129 65 4 0 23 -31 42 -68z
m5297 -41 c25 -21 58 -63 74 -92 26 -47 30 -64 30 -134 0 -84 -19 -138 -66
-195 l-21 -25 -42 50 c-76 92 -162 163 -261 215 l-53 28 41 13 c59 20 146 79
192 131 22 26 45 47 51 47 6 1 31 -17 55 -38z m738 -371 c181 -23 330 -97 441
-217 72 -79 122 -175 152 -293 30 -121 30 -334 -1 -478 -84 -396 -344 -743
-706 -942 -251 -138 -571 -224 -808 -218 l-104 3 69 120 c38 66 72 123 76 127
4 4 50 15 102 24 300 51 593 192 788 378 138 132 228 270 275 421 87 278 39
523 -130 661 -74 61 -148 86 -266 92 -121 5 -192 -8 -293 -58 l-76 -37 6 51
c3 29 9 105 12 169 l7 118 36 15 c98 41 216 69 306 73 17 0 68 -4 114 -9z
m-6213 -375 c359 -233 1034 -405 1839 -469 339 -27 381 -29 855 -31 261 -1
491 -5 510 -10 49 -11 101 -38 132 -72 52 -54 61 -92 69 -303 4 -107 12 -217
18 -243 26 -111 98 -210 184 -251 177 -86 412 -19 499 141 59 107 70 215 43
409 -38 261 -9 375 108 435 20 11 124 40 230 64 517 121 869 267 1040 433 32
32 47 41 47 30 0 -36 -41 -340 -66 -483 -132 -779 -393 -1324 -843 -1761 -125
-122 -213 -194 -336 -275 -448 -298 -1038 -428 -1778 -391 -351 17 -531 41
-785 103 -720 176 -1333 718 -1650 1459 -154 358 -263 822 -299 1266 l-8 102
55 -51 c30 -28 91 -74 136 -102z m6171 -136 c152 -56 222 -226 178 -431 -32
-154 -96 -267 -220 -392 -167 -169 -397 -293 -643 -350 -59 -14 -63 -13 -57 2
106 259 189 548 235 817 12 72 24 140 26 153 10 50 145 159 237 193 59 21 198
26 244 8z m-2164 -2655 c-163 -208 -652 -343 -1252 -345 -389 -2 -665 35 -920
123 -156 53 -257 108 -336 180 -36 33 -64 62 -63 64 2 2 35 -8 73 -22 195 -71
541 -138 850 -164 140 -12 599 -15 730 -5 303 24 679 102 863 179 79 33 87 32
55 -10z"/>
<path d="M4138 6946 c-55 -20 -85 -42 -118 -88 -109 -151 -62 -401 90 -480
178 -94 360 50 360 284 0 205 -163 344 -332 284z"/>
<path d="M5923 6935 c-97 -49 -153 -155 -154 -292 -1 -119 62 -231 156 -274
56 -26 156 -25 211 2 163 78 207 328 89 499 -38 54 -95 82 -179 87 -62 4 -78
1 -123 -22z"/>
<path d="M4728 6384 c-61 -32 -72 -109 -38 -252 11 -45 31 -105 46 -134 37
-74 121 -153 201 -191 64 -30 74 -32 183 -32 85 0 129 5 167 18 111 39 208
136 253 254 24 64 50 185 50 236 0 109 -98 153 -191 85 -164 -119 -345 -121
-522 -7 -65 42 -104 48 -149 23z m652 -246 c0 -36 -52 -119 -90 -147 -59 -43
-102 -54 -184 -49 -95 6 -166 51 -207 130 -32 63 -27 70 39 45 101 -38 338
-25 412 23 20 13 30 12 30 -2z"/>
</g>
</svg>
